<svg xmlns="http://www.w3.org/2000/svg" width="50" height="50" version="1.0" viewBox="0 0 100 100">
    <path
        d="M48 4c-1.8 1.8-2 3.3-2 15s.2 13.2 2 15c1.3 1.3 3.3 2 5.6 2h3.6l-.4 4.7c-.2 3.9 0 4.8 1.5 5.1 2.5.5 6.5-2.3 8.9-6.4l2-3.4h9.4C91.9 36 92 35.9 92 19 92 1 93.3 2 69 2c-17.7 0-19.1.1-21 2zm39.5 15v12.5l-10.1.3-10.2.3-2.8 4.2-2.7 4.2-1.1-4c-1.1-3.8-1.4-4-5.6-4.5l-4.5-.5-.3-11.4c-.1-6.3 0-12.1.2-12.8.4-1.1 4.3-1.3 18.8-1.1l18.3.3V19z" />
    <path
        d="M58 14c0 1.8.7 2 7 2s7-.2 7-2-.7-2-7-2-7 .2-7 2zM76 14c0 1.6.7 2 3 2s3-.4 3-2-.7-2-3-2-3 .4-3 2zM58 24c0 1.6.7 2 3 2s3-.4 3-2-.7-2-3-2-3 .4-3 2zM68 24c0 1.8.7 2 7 2s7-.2 7-2-.7-2-7-2-7 .2-7 2zM33.3 11.9c-7.3 3.4-10.5 12-8.4 22.6.6 3.1.6 5.4 0 6-1.7 1.7-.9 6.1 1.6 9.5 1.4 1.9 2.5 4.1 2.5 5 0 .9.7 2.5 1.5 3.6 1.8 2.4 1.9 8.4.3 10.7-.7.9-5.1 3.4-9.8 5.5C9.5 80.1 4 86.2 4 93.6V96h80v-2.4c0-7.4-5.5-13.5-17-18.8-4.7-2.1-9.1-4.6-9.7-5.5-1.9-2.5-1.6-7.3.9-11.9 2-3.8 2-7.4-.1-7.4-1.8 0-6.1 10.7-6.1 15.2 0 5.7 2.6 8.3 14.3 13.8C74.8 83 79 86.9 79 90.7c0 1-7.7 1.3-35 1.3s-35-.3-35-1.3C9 86.9 13.2 83 21.7 79 33.5 73.4 36 71 36 65c0-2.6-.9-6.3-2-8.5s-2-5-2-6.2c0-1.4-.6-2.3-1.5-2.3-1.9 0-3.1-4.6-1.6-6.4.9-1.1.9-3 0-7.8-2-11.3 1.5-18.1 10.2-19.6 2.9-.5 4.4-1.3 4.4-2.2 0-2.3-5.4-2.3-10.2-.1z" />
</svg>