<?xml version="1.0" standalone="no"?>
<!DOCTYPE svg PUBLIC "-//W3C//DTD SVG 20010904//EN" "http://www.w3.org/TR/2001/REC-SVG-20010904/DTD/svg10.dtd">
<svg version="1.0" xmlns="http://www.w3.org/2000/svg" width="50.000000pt" height="50.000000pt"
    viewBox="0 0 50.000000 50.000000" preserveAspectRatio="xMidYMid meet">

    <g transform="translate(0.000000,50.000000) scale(0.100000,-0.100000)" fill="#787878" stroke="none">
        <path d="M380 458 c-53 -57 -52 -68 10 -68 55 0 64 14 30 45 -15 14 -17 21 -9
32 14 16 41 17 57 1 7 -7 12 -44 12 -95 l0 -83 -240 0 -240 0 0 -29 c0 -16 6
-31 15 -35 10 -3 15 -19 15 -46 0 -51 22 -95 58 -114 23 -12 25 -15 10 -21
-10 -4 -18 -11 -18 -16 0 -14 26 -10 40 6 18 22 242 22 260 0 14 -16 40 -20
40 -6 0 5 -8 12 -17 16 -16 6 -14 9 9 21 36 19 58 63 58 114 0 27 5 43 15 46
12 5 15 28 15 120 0 101 -2 116 -20 134 -30 30 -57 24 -100 -22z m25 -38 c3
-5 -3 -10 -15 -10 -12 0 -18 5 -15 10 3 6 10 10 15 10 5 0 12 -4 15 -10z m75
-160 c0 -6 -83 -10 -230 -10 -147 0 -230 4 -230 10 0 6 83 10 230 10 147 0
230 -4 230 -10z m-30 -81 c0 -43 -5 -55 -29 -80 l-29 -29 -142 0 -142 0 -29
29 c-24 25 -29 37 -29 80 l0 51 200 0 200 0 0 -51z" />
        <path d="M350 370 c0 -5 5 -10 10 -10 6 0 10 5 10 10 0 6 -4 10 -10 10 -5 0
-10 -4 -10 -10z" />
        <path d="M380 370 c0 -5 5 -10 10 -10 6 0 10 5 10 10 0 6 -4 10 -10 10 -5 0
-10 -4 -10 -10z" />
        <path d="M410 370 c0 -5 5 -10 10 -10 6 0 10 5 10 10 0 6 -4 10 -10 10 -5 0
-10 -4 -10 -10z" />
        <path d="M340 340 c0 -5 5 -10 10 -10 6 0 10 5 10 10 0 6 -4 10 -10 10 -5 0
-10 -4 -10 -10z" />
        <path d="M380 340 c0 -5 5 -10 10 -10 6 0 10 5 10 10 0 6 -4 10 -10 10 -5 0
-10 -4 -10 -10z" />
        <path d="M420 340 c0 -5 5 -10 10 -10 6 0 10 5 10 10 0 6 -4 10 -10 10 -5 0
-10 -4 -10 -10z" />
        <path d="M330 310 c0 -5 5 -10 10 -10 6 0 10 5 10 10 0 6 -4 10 -10 10 -5 0
-10 -4 -10 -10z" />
        <path d="M380 310 c0 -5 5 -10 10 -10 6 0 10 5 10 10 0 6 -4 10 -10 10 -5 0
-10 -4 -10 -10z" />
        <path d="M430 310 c0 -5 5 -10 10 -10 6 0 10 5 10 10 0 6 -4 10 -10 10 -5 0
-10 -4 -10 -10z" />
    </g>
</svg>