<?xml version="1.0" standalone="no"?>
<!DOCTYPE svg PUBLIC "-//W3C//DTD SVG 20010904//EN"
 "http://www.w3.org/TR/2001/REC-SVG-20010904/DTD/svg10.dtd">
<svg version="1.0" xmlns="http://www.w3.org/2000/svg"
 width="50.000000pt" height="50.000000pt" viewBox="0 0 50.000000 50.000000"
 preserveAspectRatio="xMidYMid meet">

<g transform="translate(0.000000,50.000000) scale(0.100000,-0.100000)"
fill="#000000" stroke="none">
<path d="M130 399 c-109 -86 -143 -120 -106 -106 14 6 16 -8 16 -128 l0 -135
210 0 210 0 0 135 c0 120 2 134 16 128 38 -14 3 21 -106 106 -63 50 -117 91
-120 91 -3 0 -57 -41 -120 -91z m220 -10 l90 -71 0 -134 c0 -127 -1 -134 -20
-134 -18 0 -20 7 -20 59 0 33 4 63 10 66 17 11 11 47 -9 52 -11 3 -25 18 -32
35 -21 52 -34 58 -119 58 -85 0 -98 -6 -119 -58 -7 -17 -21 -32 -32 -35 -20
-5 -26 -41 -9 -52 6 -3 10 -33 10 -66 0 -52 -2 -59 -20 -59 -19 0 -20 7 -20
134 l0 134 87 70 c49 39 94 71 101 71 7 1 53 -31 102 -70z m2 -134 c12 -25 28
-45 35 -45 7 0 13 -4 13 -10 0 -5 -4 -10 -10 -10 -6 0 -10 -30 -10 -70 0 -56
-3 -70 -15 -70 -8 0 -15 9 -15 20 0 19 -7 20 -100 20 -93 0 -100 -1 -100 -20
0 -11 -7 -20 -15 -20 -12 0 -15 14 -15 70 0 40 -4 70 -10 70 -5 0 -10 5 -10
10 0 6 6 10 13 10 7 0 23 20 35 45 l22 45 80 0 80 0 22 -45z m-22 -195 c0 -6
-33 -10 -80 -10 -47 0 -80 4 -80 10 0 6 33 10 80 10 47 0 80 -4 80 -10z"/>
<path d="M166 240 c-9 -22 -16 -43 -16 -45 0 -3 45 -5 100 -5 55 0 100 2 100
5 0 2 -7 23 -16 45 l-16 40 -68 0 -68 0 -16 -40z m144 1 c5 -11 10 -22 10 -25
0 -3 -31 -6 -70 -6 -38 0 -70 3 -70 6 0 3 5 14 10 25 15 28 105 28 120 0z"/>
<path d="M144 156 c-10 -26 4 -48 28 -44 17 2 23 10 23 28 0 18 -6 26 -23 28
-13 2 -25 -3 -28 -12z m36 -16 c0 -5 -4 -10 -10 -10 -5 0 -10 5 -10 10 0 6 5
10 10 10 6 0 10 -4 10 -10z"/>
<path d="M304 156 c-10 -26 4 -48 28 -44 17 2 23 10 23 28 0 18 -6 26 -23 28
-13 2 -25 -3 -28 -12z m36 -16 c0 -5 -4 -10 -10 -10 -5 0 -10 5 -10 10 0 6 5
10 10 10 6 0 10 -4 10 -10z"/>
</g>
</svg>
