<svg xmlns="http://www.w3.org/2000/svg" width="50" height="50" version="1.0" viewBox="0 0 100 100">
    <path
        d="M34 4c-1.8 1.8-3.3 2-14 2C2.4 6 4 2 4 47c0 35.7.1 37.1 2 39 1.9 1.9 3.3 2 21 2 12 0 19 .4 19 1 0 .5.9 1.9 2 3 1.9 1.9 3.3 2 22 2s20.1-.1 22-2c1.9-1.9 2-3.3 2-27 0-30.5.7-29-13-29h-9V23c0-17.3.3-17-16-17-10.7 0-12.2-.2-14-2-1.1-1.1-2.9-2-4-2s-2.9.9-4 2zm5.6 3.1c1 1.7-1.3 3.6-2.7 2.2C35.7 8.1 36.5 6 38 6c.5 0 1.2.5 1.6 1.1zM20 14c0 2.7.7 4.7 2 6 1.8 1.8 3.3 2 16 2s14.2-.2 16-2c1.3-1.3 2-3.3 2-6V9.9l5.8.3 5.7.3.3 12.7.3 12.8H59c-13.5 0-13-1.1-13 26v22l-18.7-.2-18.8-.3L8.2 48c-.1-19.5 0-36.1.3-36.7.3-.8 2.5-1.3 6-1.3H20v4zm14-2c1.1 1.1 2.9 2 4 2s2.9-.9 4-2c1.3-1.3 3.3-2 6.1-2h4l-.3 3.7-.3 3.8h-27l-.3-3.8-.3-3.7h4c2.8 0 4.8.7 6.1 2zm55.5 53v24.5h-39L50.2 66c-.1-12.9 0-24 .3-24.8.3-1 4.7-1.2 19.7-1l19.3.3V65z" />
    <path
        d="M26 36c0 5.3-.2 6-2 6-1.6 0-2-.7-2-3s-.4-3-2-3-2 .7-2 3-.4 3-2 3c-1.3 0-2 .7-2 2 0 1.9.7 2 14 2s14-.1 14-2c0-1.3-.7-2-2-2-1.7 0-2-.7-2-4s-.3-4-2-4-2 .7-2 4-.3 4-2 4c-1.8 0-2-.7-2-6s-.2-6-2-6-2 .7-2 6zM21.5 54.9c-4.5 2-7 6-7 11.2 0 4.2.5 5.3 3.3 8.1 4.7 4.8 11.7 4.8 16.4 0 2.8-2.8 3.3-3.9 3.3-8.2 0-4.2-.5-5.4-3.1-8.1-3.3-3.3-9.2-4.6-12.9-3zM26 62v4h4c4.8 0 5.3 1.8 1.5 5.5C26.6 76.5 18 73 18 66c0-3.3 3.8-8 6.5-8 1.1 0 1.5 1.1 1.5 4zM54.4 45.4c-.3.7-.4 3.3-.2 5.7l.3 4.4h31v-11l-15.3-.3c-12.4-.2-15.3 0-15.8 1.2zM82 50c0 1.9-.7 2-12 2s-12-.1-12-2 .7-2 12-2 12 .1 12 2zM54.4 61.4c-1.2 3 .4 4.7 3.8 4.4 2.8-.2 3.3-.7 3.3-2.8 0-2.1-.5-2.6-3.3-2.8-2.2-.2-3.4.2-3.8 1.2zM66.4 61.4c-1.2 3 .4 4.7 3.8 4.4 2.8-.2 3.3-.7 3.3-2.8 0-2.1-.5-2.6-3.3-2.8-2.2-.2-3.4.2-3.8 1.2zM78.4 61.4c-1.2 3 .4 4.7 3.8 4.4 2.8-.2 3.3-.7 3.3-2.8 0-2.1-.5-2.6-3.3-2.8-2.2-.2-3.4.2-3.8 1.2zM54.4 71.4c-1.2 3 .4 4.7 3.8 4.4 2.8-.2 3.3-.7 3.3-2.8 0-2.1-.5-2.6-3.3-2.8-2.2-.2-3.4.2-3.8 1.2zM66.4 71.4c-1.2 3 .4 4.7 3.8 4.4 2.8-.2 3.3-.7 3.3-2.8 0-2.1-.5-2.6-3.3-2.8-2.2-.2-3.4.2-3.8 1.2zM78.4 71.4c-1.2 3 .4 4.7 3.8 4.4 2.8-.2 3.3-.7 3.3-2.8 0-2.1-.5-2.6-3.3-2.8-2.2-.2-3.4.2-3.8 1.2zM54.4 81.4c-1.2 3 .4 4.7 3.8 4.4 2.8-.2 3.3-.7 3.3-2.8 0-2.1-.5-2.6-3.3-2.8-2.2-.2-3.4.2-3.8 1.2zM66.4 81.4c-1.2 3 .4 4.7 3.8 4.4 2.8-.2 3.3-.7 3.3-2.8 0-2.1-.5-2.6-3.3-2.8-2.2-.2-3.4.2-3.8 1.2zM78.4 81.4c-1.2 3 .4 4.7 3.8 4.4 2.8-.2 3.3-.7 3.3-2.8 0-2.1-.5-2.6-3.3-2.8-2.2-.2-3.4.2-3.8 1.2z" />
</svg>