<?xml version="1.0" standalone="no"?>
<!DOCTYPE svg PUBLIC "-//W3C//DTD SVG 20010904//EN"
 "http://www.w3.org/TR/2001/REC-SVG-20010904/DTD/svg10.dtd">
<svg version="1.0" xmlns="http://www.w3.org/2000/svg"
 width="50.000000pt" height="50.000000pt" viewBox="0 0 50.000000 50.000000"
 preserveAspectRatio="xMidYMid meet">

<g transform="translate(0.000000,50.000000) scale(0.100000,-0.100000)"
fill="#000000" stroke="none">
<path d="M33 443 c-25 -10 -12 -22 17 -16 43 8 101 -32 119 -82 l14 -39 -42
-35 c-42 -36 -54 -58 -26 -47 12 4 15 -3 15 -32 l0 -37 -42 3 c-50 3 -82 -12
-59 -27 12 -8 13 -16 3 -47 -6 -21 -9 -40 -7 -43 11 -10 26 17 34 60 6 30 9
36 10 17 1 -37 18 -78 32 -78 7 0 8 7 4 18 -5 9 -10 32 -13 50 -4 29 -2 33 14
30 15 -2 20 -14 22 -51 l3 -47 163 0 c179 0 179 0 190 62 6 32 3 38 -23 57
-16 12 -34 21 -40 21 -6 0 -11 11 -11 25 0 18 4 23 15 19 26 -10 16 14 -15 38
-24 17 -30 29 -30 60 0 36 -2 38 -30 38 -16 0 -30 -5 -30 -12 0 -6 -11 -1 -25
12 l-25 24 -30 -29 c-24 -23 -32 -26 -45 -15 -8 7 -15 21 -15 31 0 12 -18 30
-47 49 -46 28 -73 35 -100 23z m303 -143 c49 -42 53 -48 53 -90 1 -38 -3 -47
-21 -55 -19 -9 -23 -17 -20 -53 2 -32 -1 -42 -13 -42 -12 0 -15 14 -15 65 l0
65 -50 0 -50 0 0 -65 0 -65 -35 0 -35 0 1 98 0 97 57 48 c30 26 60 46 65 44 6
-2 34 -23 63 -47z m24 24 c0 -8 -4 -12 -10 -9 -5 3 -10 10 -10 16 0 5 5 9 10
9 6 0 10 -7 10 -16z m-60 -209 c0 -54 0 -55 -30 -55 -30 0 -30 1 -30 55 0 54
0 55 30 55 30 0 30 -1 30 -55z m153 29 c18 -7 24 -34 7 -34 -5 0 -9 -10 -7
-22 2 -20 -3 -23 -42 -26 -40 -3 -43 -1 -38 17 3 12 1 24 -4 27 -5 3 -9 9 -9
14 0 12 52 39 65 34 6 -2 18 -7 28 -10z"/>
</g>
</svg>
