<?xml version="1.0" standalone="no"?>
<!DOCTYPE svg PUBLIC "-//W3C//DTD SVG 20010904//EN" "http://www.w3.org/TR/2001/REC-SVG-20010904/DTD/svg10.dtd">
<svg width="50.000000pt" height="50.000000pt" viewBox="0 0 50.000000 50.000000" preserveAspectRatio="xMidYMid meet">

    <g transform="translate(0.000000,50.000000) scale(0.100000,-0.100000)" fill="#000000" stroke="none">
        <path d="M130 409 c-109 -85 -144 -120 -106 -106 19 7 21 -9 5 -49 -7 -21 -7
-34 2 -52 10 -18 10 -28 1 -42 -9 -14 -9 -31 1 -69 l12 -51 205 0 205 0 12 51
c10 38 10 55 1 69 -9 14 -9 24 1 42 9 18 9 31 2 52 -15 39 -14 56 4 50 29 -11
15 12 -25 42 -34 25 -40 35 -40 67 0 34 -2 37 -29 37 -16 0 -31 -5 -33 -11 -2
-6 -24 6 -50 25 -26 20 -48 36 -50 36 -2 -1 -55 -41 -118 -91z m220 -10 c123
-97 122 -108 -4 -148 l-95 -29 -95 29 c-129 40 -130 52 -5 148 50 39 95 71
100 71 5 0 50 -32 99 -71z m40 16 c0 -8 -4 -15 -10 -15 -5 0 -10 7 -10 15 0 8
5 15 10 15 6 0 10 -7 10 -15z m-235 -185 l50 -18 -29 -11 c-41 -16 -136 13
-129 40 6 21 19 19 108 -11z m298 11 c4 -16 -18 -25 -182 -75 -102 -31 -193
-59 -202 -62 -10 -3 -18 3 -22 15 -4 16 18 25 192 79 108 33 199 61 202 61 4
1 9 -7 12 -18z m-353 -61 c0 -5 -9 -10 -20 -10 -11 0 -20 5 -20 10 0 6 9 10
20 10 11 0 20 -4 20 -10z m340 0 c0 -5 -6 -10 -14 -10 -8 0 -18 5 -21 10 -3 6
3 10 14 10 12 0 21 -4 21 -10z m-35 -26 c43 -14 51 -20 47 -36 -3 -12 -11 -17
-21 -14 -141 44 -137 43 -111 54 33 14 26 14 85 -4z m-47 -49 c45 -14 82 -30
82 -35 0 -6 -76 -10 -190 -10 -115 0 -190 4 -190 10 0 11 179 69 200 64 8 -2
52 -15 98 -29z" />
        <path d="M70 230 c0 -5 5 -10 10 -10 6 0 10 5 10 10 0 6 -4 10 -10 10 -5 0
-10 -4 -10 -10z" />
        <path d="M400 230 c0 -5 5 -10 10 -10 6 0 10 5 10 10 0 6 -4 10 -10 10 -5 0
-10 -4 -10 -10z" />
        <path d="M70 130 c0 -5 5 -10 10 -10 6 0 10 5 10 10 0 6 -4 10 -10 10 -5 0
-10 -4 -10 -10z" />
        <path d="M400 130 c0 -5 5 -10 10 -10 6 0 10 5 10 10 0 6 -4 10 -10 10 -5 0
-10 -4 -10 -10z" />
    </g>
</svg>