<?xml version="1.0" standalone="no"?>
<!DOCTYPE svg PUBLIC "-//W3C//DTD SVG 20010904//EN"
 "http://www.w3.org/TR/2001/REC-SVG-20010904/DTD/svg10.dtd">
<svg version="1.0" xmlns="http://www.w3.org/2000/svg"
 width="50.000000pt" height="50.000000pt" viewBox="0 0 50.000000 50.000000"
 preserveAspectRatio="xMidYMid meet">

<g transform="translate(0.000000,50.000000) scale(0.100000,-0.100000)"
fill="#000000" stroke="none">
<path d="M130 399 c-109 -86 -143 -120 -106 -106 14 6 16 -8 16 -128 l0 -135
210 0 210 0 0 135 c0 120 2 134 16 128 38 -14 3 21 -106 106 -63 50 -117 91
-120 91 -3 0 -57 -41 -120 -91z m220 -10 l90 -71 0 -134 0 -134 -190 0 -190 0
0 134 0 134 87 70 c49 39 94 71 101 71 7 1 53 -31 102 -70z"/>
<path d="M197 273 c-3 -38 -8 -81 -12 -96 -10 -36 26 -77 65 -77 39 0 74 41
66 77 -18 74 -19 83 -2 83 9 0 16 5 16 10 0 6 -7 10 -15 10 -8 0 -15 5 -15 10
0 6 7 10 15 10 8 0 15 5 15 10 0 6 -7 10 -15 10 -8 0 -15 5 -15 10 0 6 -22 10
-49 10 l-49 0 -5 -67z m86 -10 c3 -32 8 -70 12 -84 5 -18 2 -31 -10 -42 -36
-36 -93 -6 -80 42 4 14 9 52 12 84 5 55 6 57 33 57 27 0 28 -2 33 -57z"/>
<path d="M240 250 c0 -22 -5 -49 -12 -59 -15 -24 -4 -51 22 -51 26 0 37 27 22
51 -7 10 -12 37 -12 59 0 22 -4 40 -10 40 -5 0 -10 -18 -10 -40z"/>
</g>
</svg>
