<?xml version="1.0" standalone="no"?>
<!DOCTYPE svg PUBLIC "-//W3C//DTD SVG 20010904//EN" "http://www.w3.org/TR/2001/REC-SVG-20010904/DTD/svg10.dtd">
<svg version="1.0" xmlns="http://www.w3.org/2000/svg" width="50.000000pt" height="50.000000pt"
    viewBox="0 0 50.000000 50.000000" preserveAspectRatio="xMidYMid meet">

    <g transform="translate(0.000000,50.000000) scale(0.100000,-0.100000)" fill="#787878" stroke="none">
        <path d="M35 470 l-29 -30 32 -32 c33 -34 58 -32 27 2 -18 20 -18 20 110 20
128 0 128 0 110 -20 -31 -34 -6 -36 28 -2 l32 32 -32 32 c-34 34 -59 32 -28
-2 18 -20 18 -20 -110 -20 -123 0 -128 1 -112 18 38 42 12 43 -28 2z" />
        <path d="M0 175 l0 -175 175 0 175 0 0 175 0 175 -175 0 -175 0 0 -175z m330
0 l0 -155 -155 0 -155 0 0 155 0 155 155 0 155 0 0 -155z" />
        <path d="M405 310 c-31 -33 -27 -54 5 -25 20 18 20 18 20 -110 0 -128 0 -128
-20 -110 -34 31 -36 6 -2 -28 l32 -32 32 32 c34 34 32 59 -2 28 -20 -18 -20
-18 -20 110 0 128 0 128 20 110 32 -29 36 -8 5 25 -16 17 -32 30 -35 30 -3 0
-19 -13 -35 -30z" />
    </g>
</svg>