<?xml version="1.0" standalone="no"?>
<!DOCTYPE svg PUBLIC "-//W3C//DTD SVG 20010904//EN"
 "http://www.w3.org/TR/2001/REC-SVG-20010904/DTD/svg10.dtd">
<svg version="1.0" xmlns="http://www.w3.org/2000/svg"
 width="50.000000pt" height="50.000000pt" viewBox="0 0 50.000000 50.000000"
 preserveAspectRatio="xMidYMid meet">

<g transform="translate(0.000000,50.000000) scale(0.100000,-0.100000)"
fill="#000000" stroke="none">
<path d="M103 481 c-4 -14 -15 -21 -42 -23 l-36 -3 0 -215 0 -215 225 0 225 0
0 215 0 215 -36 3 c-27 2 -38 9 -42 23 -7 26 -47 25 -54 -1 -5 -18 -14 -20
-93 -20 -79 0 -88 2 -93 20 -7 26 -47 27 -54 1z m37 -31 c0 -16 -4 -30 -10
-30 -5 0 -10 14 -10 30 0 17 5 30 10 30 6 0 10 -13 10 -30z m240 0 c0 -16 -4
-30 -10 -30 -5 0 -10 14 -10 30 0 17 5 30 10 30 6 0 10 -13 10 -30z m-277 -30
c3 -12 14 -20 27 -20 13 0 24 8 27 20 5 18 14 20 93 20 79 0 88 -2 93 -20 3
-12 14 -20 27 -20 13 0 24 8 27 20 4 14 14 20 34 20 26 0 29 -3 29 -35 l0 -35
-210 0 -210 0 0 35 c0 32 3 35 29 35 20 0 30 -6 34 -20z m357 -225 l0 -155
-210 0 -210 0 0 155 0 155 210 0 210 0 0 -155z"/>
<path d="M100 195 l0 -115 150 0 150 0 0 115 0 115 -150 0 -150 0 0 -115z m70
70 c0 -20 -5 -25 -25 -25 -20 0 -25 5 -25 25 0 20 5 25 25 25 20 0 25 -5 25
-25z m70 0 c0 -20 -5 -25 -25 -25 -20 0 -25 5 -25 25 0 20 5 25 25 25 20 0 25
-5 25 -25z m70 0 c0 -20 -5 -25 -25 -25 -20 0 -25 5 -25 25 0 20 5 25 25 25
20 0 25 -5 25 -25z m70 0 c0 -20 -5 -25 -25 -25 -20 0 -25 5 -25 25 0 20 5 25
25 25 20 0 25 -5 25 -25z m-210 -70 c0 -20 -5 -25 -25 -25 -20 0 -25 5 -25 25
0 20 5 25 25 25 20 0 25 -5 25 -25z m70 0 c0 -20 -5 -25 -25 -25 -20 0 -25 5
-25 25 0 20 5 25 25 25 20 0 25 -5 25 -25z m70 0 c0 -20 -5 -25 -25 -25 -20 0
-25 5 -25 25 0 20 5 25 25 25 20 0 25 -5 25 -25z m70 0 c0 -20 -5 -25 -25 -25
-20 0 -25 5 -25 25 0 20 5 25 25 25 20 0 25 -5 25 -25z m-210 -70 c0 -20 -5
-25 -25 -25 -20 0 -25 5 -25 25 0 20 5 25 25 25 20 0 25 -5 25 -25z m70 0 c0
-20 -5 -25 -25 -25 -20 0 -25 5 -25 25 0 20 5 25 25 25 20 0 25 -5 25 -25z
m70 0 c0 -20 -5 -25 -25 -25 -20 0 -25 5 -25 25 0 20 5 25 25 25 20 0 25 -5
25 -25z m70 0 c0 -20 -5 -25 -25 -25 -20 0 -25 5 -25 25 0 20 5 25 25 25 20 0
25 -5 25 -25z"/>
</g>
</svg>
