<svg xmlns="http://www.w3.org/2000/svg" width="133.333" height="133.333" version="1.0" viewBox="0 0 100 100"><path d="M42.5 2.9c-9.2 2.4-17.3 9-21.5 17.6-3.4 7-3.4 20-.2 29.9 4.4 13.1 16.4 33.8 25.6 44.1l3.6 4 3.6-4C58.5 89 68.5 74 72.5 66.1c6.7-13.5 8.8-20.8 8.9-31.1.1-9-.1-9.8-3.3-15.8-5.7-10.5-14.4-16-26-16.7-3.6-.2-7.9-.1-9.6.4zM59 7.6c7.6 2.3 15.3 10 17.6 18 4 13.7-2.2 32.4-18.5 56.1-3.6 5.3-7.1 9.8-7.8 10-1.9.7-13-15.5-19.3-28.2-11.8-23.7-11.9-37.7-.6-49.1 8-7.9 17.3-10.2 28.6-6.8z"/><path d="M43.2 24c-7 4.3-9.2 12.8-4.9 19.1 5.7 8.6 17.8 8.8 23.3.4 7.7-11.8-6.4-26.8-18.4-19.5zm11.7 3.4c6.7 3.5 6.5 14.3-.4 17.4-5.1 2.3-10.7.7-13.1-3.9-4.7-9.1 4.4-18.2 13.5-13.5z"/></svg>