<svg xmlns="http://www.w3.org/2000/svg" width="133.333" height="133.333" version="1.0" viewBox="0 0 100 100">
    <path
        d="M22.7 14.2 3.9 24.4l.3 4.5c.3 4.2.6 4.6 3 4.9l2.8.3.2 20.7.3 20.7 12.8.3 12.7.3V85c0 8.4.1 9 2.6 10.9 4 3.1 10 4.4 18.1 3.8C66.7 99 72 95.9 72 91c0-2.7.1-2.7 7.9-3.3 7.7-.5 10.9-1.5 14.3-4.5C95.8 81.9 96 79.6 96 64c0-16.2-.2-17.8-1.9-19.4-2.9-2.7-9-4.5-14.8-4.6-5.2 0-5.3-.1-5.3-2.9 0-2.5.4-3 2.8-3.3 2.5-.3 2.7-.7 3-4.9l.3-4.5-17.8-9.7C52.5 9.4 43.8 4.9 43 4.6c-.8-.3-10 4-20.3 9.6zm36.9 3.5C71.1 23.9 76 27 76 28.2c0 1-.5 1.8-1.2 1.8-.6 0-8.3-3.9-17-8.6L42 12.8l-15.7 8.6C17.7 26.1 10 30 9.3 30c-.7 0-1.3-.8-1.3-1.8.1-1.2 4.9-4.3 16.3-10.4C33.2 13 41.1 9.1 41.9 9c.8 0 8.8 3.9 17.7 8.7zm-3 7.5L70 32.5v4.1c0 3.6-.4 4.3-2.3 4.8-1.3.3-3.6 1.5-5 2.7-2.5 1.9-2.7 2.7-2.7 9V60h-6.2c-10.7.1-17.8 3.8-17.8 9.2V72H14V32.5l13.3-7.2c7.2-4 13.8-7.2 14.6-7.3.8 0 7.4 3.3 14.7 7.2zM89.3 46c1.5.7 2.7 1.6 2.7 2 0 1.4-5.7 3.2-11.5 3.7-7.6.7-18.4-2.2-16.3-4.2 3.4-3.4 19-4.3 25.1-1.5zm-9.2 9.7c4.2-.3 8.6-1 9.8-1.6 1.8-1 2.1-.9 2.1.7 0 2.9-5.4 4.7-14 4.7-8.4 0-14-1.8-14-4.5 0-1.6.3-1.7 4.3-.3 2.9 1.1 6.5 1.4 11.8 1zm10.7 9.4c-2.5 1.7-8.3 2.9-13.3 2.9-4-.1-5.3-.5-6.6-2.3l-1.6-2.2h9.1c5.1 0 10-.6 11.1-1.2 1.6-1 2.1-.9 2.3.4.2.9-.2 2-1 2.4zm-25.5.9c1.5.7 2.7 1.6 2.7 2 0 1.4-5.7 3.2-11.5 3.7-7.6.7-18.4-2.2-16.3-4.2 3.4-3.4 19-4.3 25.1-1.5zm25.5 7.1c-2.5 1.7-8.3 2.9-13.5 2.9-4.5 0-5.3-.3-5.3-1.9 0-1.6 1.1-1.9 7.9-2.4 4.4-.3 8.7-1 9.8-1.5 1.4-.8 1.9-.7 2.1.5.2.9-.2 2-1 2.4zm-34.7 2.6c4.2-.3 8.6-1 9.8-1.6 1.8-1 2.1-.9 2.1.7 0 2.9-5.4 4.7-14 4.7-8.4 0-14-1.8-14-4.5 0-1.6.3-1.7 4.3-.3 2.9 1.1 6.5 1.4 11.8 1zm34.7 5.4c-2.5 1.7-8.3 2.9-13.5 2.9-4.5 0-5.3-.3-5.3-1.9 0-1.6 1.1-1.9 7.9-2.4 4.4-.3 8.7-1 9.8-1.5 1.4-.8 1.9-.7 2.1.5.2.9-.2 2-1 2.4zm-34.7 2.6c4.2-.3 8.6-1 9.8-1.6 1.8-1 2.1-.9 2.1.7 0 2.9-5.4 4.7-14 4.7-8.4 0-14-1.8-14-4.5 0-1.6.3-1.7 4.3-.3 2.9 1.1 6.5 1.4 11.8 1zm0 8c4.2-.3 8.6-1 9.8-1.6 1.8-1 2.1-.9 2.1.7 0 2.9-5.4 4.7-14 4.7-8.4 0-14-1.8-14-4.5 0-1.6.3-1.7 4.3-.3 2.9 1.1 6.5 1.4 11.8 1z" />
</svg>