<svg xmlns="http://www.w3.org/2000/svg" width="133.333" height="133.333" version="1.0" viewBox="0 0 100 100">
    <path
        d="M34.8 12.7C22.1 20.1 20 21.6 20 23.8c0 2.4.1 2.4 2.5.8 1.3-.9 2.7-1.6 2.9-1.6.3 0 .7 7.3.8 16.2l.3 16.3h47l.3-16.3c.1-8.9.6-16.2 1-16.2s1.8.7 3 1.6c2.1 1.4 2.2 1.4 2.2-1 0-2.1-2-3.6-13.7-10.4C58.7 8.7 51.8 4.9 51 4.6c-.8-.3-7.9 3.2-16.2 8.1zm25.8 1.8 9.4 5.6V52H30V20.1l9.3-5.5c5-3 9.8-5.5 10.5-5.6.8 0 5.6 2.5 10.8 5.5z" />
    <path
        d="M6 34c-1.8 1.8-2 3.3-2 18.6 0 10.4.4 17.3 1.1 18.7 2.2 4.2 20.1 24.8 21.2 24.4 2.5-.8 1.3-3-7.8-13.8-5.3-6.2-9.8-12.3-10.1-13.4-.2-1.1-.3-8.8-.2-17 .3-12.5.5-15 1.8-15 1.2 0 1.5 2.3 1.8 13.2.2 10.1.6 13.4 1.7 14.3.8.7 1.5 1.8 1.5 2.4 0 .6 3.4 4.5 7.5 8.6 5.9 5.9 7.7 7.2 8.7 6.2 1-1-.2-2.7-5.5-8C19 66.4 17.4 63 20.8 63c2 0 15 12.9 17.2 17 .8 1.4 1.6 5.4 1.9 9 .5 4.9 1 6.5 2.1 6.5s1.6-1.3 1.8-4.7c.6-8.9-1.2-12.4-11.1-22.5-9.2-9.5-12.5-11.1-15.5-8.1-.9.9-1.2-1.6-1.2-11.5 0-11.4-.2-12.9-2-14.7-1.1-1.1-2.9-2-4-2s-2.9.9-4 2zM86 34c-1.8 1.8-2 3.3-2 14.7 0 9.9-.3 12.4-1.2 11.5-3-3-6.3-1.4-15.5 8.1-9.9 10.1-11.7 13.6-11.1 22.5.2 3.4.7 4.7 1.8 4.7s1.6-1.6 2.1-6.5c.3-3.6 1.1-7.6 1.9-9 2.2-4.1 15.2-17 17.2-17 3.4 0 1.8 3.4-4.9 10.2-5.3 5.3-6.5 7-5.5 8s2.8-.3 8.7-6.2c4.1-4.1 7.5-8 7.5-8.6 0-.6.7-1.7 1.5-2.4 1.1-.9 1.5-4.2 1.7-14.3.3-10.9.6-13.2 1.8-13.2 1.3 0 1.5 2.5 1.8 15 .1 8.2 0 15.9-.2 17-.3 1.1-4.8 7.2-10.1 13.4-9.1 10.8-10.3 13-7.8 13.8 1.1.4 19-20.2 21.2-24.4.7-1.4 1.1-8.3 1.1-18.7 0-15.3-.2-16.8-2-18.6-1.1-1.1-2.9-2-4-2s-2.9.9-4 2z" />
</svg>