<svg xmlns="http://www.w3.org/2000/svg" width="50" height="50" version="1.0" viewBox="0 0 100 100">
    <path
        d="M38.7 14.2 19.9 24.5l.3 4.5c.3 4.1.6 4.5 3.1 4.8 2.4.3 2.7.7 2.7 4.4 0 3.2.3 3.9 1.6 3.4.9-.3 1.8-.6 2-.6.2 0 .4-1.9.4-4.3v-4.2l13.4-7.3c7.4-3.9 14-7.2 14.7-7.2.7 0 7.2 3.3 14.5 7.2L86 32.5V84h-8c-7.4 0-8 .2-8 2 0 2 .5 2.1 9.8 1.8l9.7-.3.3-26.7.2-26.7 2.8-.3c2.4-.3 2.7-.7 3-4.9l.3-4.5-17.8-9.7C68.5 9.4 59.8 4.9 59 4.6c-.8-.3-9.9 4-20.3 9.6zm36.9 3.5C87.1 23.9 92 27 92 28.2c0 1-.5 1.8-1.2 1.8-.6 0-8.3-3.9-17-8.6L58 12.8l-15.7 8.6C33.7 26.1 26 30 25.3 30c-.7 0-1.3-.8-1.3-1.8.1-1.2 4.9-4.3 16.3-10.4C49.2 13 57.1 9.1 57.9 9c.8 0 8.8 3.9 17.7 8.7z" />
    <path
        d="M20.7 49.2 3.9 58.4l.3 4.5c.3 4.2.6 4.6 3 4.9l2.7.3.3 13.7.3 13.7h55l.3-13.7.3-13.7 2.7-.3c2.4-.3 2.7-.7 3-4.9l.3-4.6-16.8-9.1C46 44.1 38.2 40 38 40c-.3 0-8.1 4.2-17.3 9.2zm32.9 3.5C63.6 58.1 68 61 68 62.2c0 1-.5 1.8-1.2 1.8-.6 0-7.4-3.4-15-7.6L38 48.8l-13.8 7.6C16.6 60.6 9.8 64 9.2 64c-.7 0-1.2-.8-1.2-1.8 0-1.2 4.4-4.1 14.3-9.4 7.8-4.3 14.8-7.8 15.6-7.8.7 0 7.8 3.5 15.7 7.7zm-3 7.5L62 66.5V92H14V79.2l.1-12.7 11.2-6.2c6.2-3.4 11.8-6.3 12.6-6.3.7 0 6.5 2.8 12.7 6.2z" />
</svg>