<svg width="16" height="16" viewBox="0 0 16 16" fill="none" xmlns="http://www.w3.org/2000/svg">
    <path fill-rule="evenodd" clip-rule="evenodd" d="M7.15625 1.8125C4.20498 1.8125 1.8125 4.20498 1.8125 7.15625C1.8125 10.1075 4.20498 12.5 7.15625 12.5C10.1075 12.5 12.5 10.1075 12.5 7.15625C12.5 4.20498 10.1075 1.8125 7.15625 1.8125ZM0.6875 7.15625C0.6875 3.58366 3.58366 0.6875 7.15625 0.6875C10.7288 0.6875 13.625 3.58366 13.625 7.15625C13.625 10.7288 10.7288 13.625 7.15625 13.625C3.58366 13.625 0.6875 10.7288 0.6875 7.15625Z" fill="white"/>
    <path fill-rule="evenodd" clip-rule="evenodd" d="M10.9351 10.935C11.1548 10.7153 11.511 10.7153 11.7306 10.935L15.1478 14.3522C15.3675 14.5719 15.3675 14.928 15.1478 15.1477C14.9282 15.3674 14.572 15.3674 14.3523 15.1477L10.9351 11.7305C10.7155 11.5108 10.7155 11.1547 10.9351 10.935Z" fill="white"/>
</svg>
