<svg xmlns="http://www.w3.org/2000/svg" width="50" height="50" version="1.0" viewBox="0 0 100 100">
    <path
        d="M10.5 5.2c-.3.7-.4 21.3-.3 45.8l.3 44.5h67V75c0-17.6-.2-20.5-1.5-20.5s-1.5 2.9-1.8 18.7L74 92H30.1l-.3-3.8c-.2-2.5-.8-3.7-1.8-3.7s-1.6 1.2-1.8 3.7l-.3 3.8H14V68h11.9l.3 3.8c.4 5.1 3.2 5.1 3.6 0l.3-3.7 11.7-.3c9.6-.2 11.7-.6 11.7-1.8 0-1.3-3-1.5-19.7-1.8L14 64V40.1l12.8-.3c10.5-.3 12.7-.6 12.7-1.8 0-1.2-2.2-1.5-12.7-1.8L14 35.9V8h29.9l.3 10.7c.2 8.8.6 10.8 1.8 10.8 1.2 0 1.6-2 1.8-10.8L48.1 8H74l.2 17.7.3 17.8H82c6 0 7.5-.3 7.5-1.5 0-1.1-1.4-1.6-5.7-1.8l-5.8-.3-.2-17.7-.3-17.7-33.3-.3c-26.1-.2-33.4 0-33.7 1z" />
    <path
        d="M86.7 45.7c-1.3 1.2-.7 3.3.8 3.3.8 0 1.5-.9 1.5-2 0-2-1.1-2.6-2.3-1.3zM83.4 51.1c-.3.6-.2 1.5.4 2.1 1.3 1.3 3.2.2 3.2-1.8 0-1.6-2.6-1.9-3.6-.3zM79.4 54.1c-1 1.7 1.3 3.6 2.7 2.2 1.2-1.2.4-3.3-1.1-3.3-.5 0-1.2.5-1.6 1.1z" />
</svg>